:SAMPLES-PER-SECOND 30
:FRAME-RANGE 1-2091
:FULLY-SPECIFIED
:DEGREES
1373
root  46.5105 38.9946 -58.0603 -13.4125 -65.9894 14.8495
RightUpLeg  -26.6143 4.12421 -5.68045
RightLeg  57.7286 -1.75291 -3.43394
RightFoot  -6.29785 -0.0748824 0.72928
RightToes  5.38607e-012 1.2921e-014 -6.02303e-014
Spine  -3.45639 -2.01709 -6.31312
Spine1  7.0819 -2.32729 -1.21678
HEad  11.8691 11.9964 -1.40853
LeftShoulder1  0.786516 -1.00638 -11.2917
LeftArm  -42.5026 -21.6744 -20.908
LeftForeArm  -30.9798 -4.22113 2.87692
LeftHand  0.00608875 5.83294 7.63587
RightShoulder  1.30483 0.440388 28.8363
RightArm  -28.3832 -9.45171 38.1694
RightForeArm  58.5457 -5.4787 2.09135
RightHand  0.245042 -6.91215 -19.5902
LeftUpLeg  -5.14176 0.201217 -9.50085
LeftLeg  17.7647 -4.65775 -0.768927
LeftFoot  -13.569 0.134605 2.7302
LeftToes  -7.20997e-011 3.75522e-011 -2.80735e-011
1374
root  45.2573 39.0552 -57.3725 -10.0106 -63.8721 11.682
RightUpLeg  -27.4343 4.70067 -4.58504
RightLeg  47.7834 -4.3565 -5.44591
RightFoot  -6.87554 -0.0558994 0.237267
RightToes  5.38607e-012 1.2921e-014 -6.02303e-014
Spine  -3.53312 -2.45719 -5.38084
Spine1  6.74636 -2.708 -0.477112
HEad  10.7492 11.4667 -1.54072
LeftShoulder1  0.765603 -0.888275 -11.3079
LeftArm  -40.2104 -19.6436 -20.7984
LeftForeArm  -31.2363 -3.5077 2.35315
LeftHand  -0.00115443 5.80318 6.48704
RightShoulder  1.14879 -0.00967694 28.8292
RightArm  -29.0281 -11.7529 37.3718
RightForeArm  59.0329 -5.39675 1.70128
RightHand  0.285669 -7.17006 -19.4279
LeftUpLeg  -2.71965 0.314404 -8.7509
LeftLeg  16.8245 -6.78707 -1.08527
LeftFoot  -14.5246 0.195385 3.88895
LeftToes  -7.20997e-011 3.75522e-011 -2.80735e-011
1375
root  44.0505 39.1551 -56.6765 -6.56458 -61.5695 8.73279
RightUpLeg  -27.3329 3.99278 -3.47135
RightLeg  35.2131 -6.17912 -4.91162
RightFoot  -4.53793 -0.0991425 1.14853
RightToes  5.38607e-012 1.2921e-014 -6.02303e-014
Spine  -3.74088 -2.80197 -3.98703
Spine1  6.38539 -3.02279 0.340384
HEad  9.9673 10.9755 -1.64701
LeftShoulder1  0.770681 -0.842022 -11.6692
LeftArm  -37.7828 -17.2731 -21.016
LeftForeArm  -31.3697 -3.01507 1.71743
LeftHand  0.0115398 6.05986 6.41228
RightShoulder  1.05703 -0.265314 28.7182
RightArm  -29.3279 -13.5325 36.5362
RightForeArm  59.7029 -5.33484 1.46726
RightHand  0.305887 -7.38411 -18.6097
LeftUpLeg  -0.282682 0.28052 -7.66567
LeftLeg  15.0578 -9.15864 -1.3496
LeftFoot  -15.0542 0.235949 4.48561
LeftToes  -7.20997e-011 3.75522e-011 -2.80735e-011
1376
root  42.8283 39.1726 -55.9495 -4.33246 -59.5012 7.23395
RightUpLeg  -26.4437 2.62036 -2.77327
RightLeg  21.3898 -4.87402 -2.30988
RightFoot  -3.16251 -0.183192 2.26012
RightToes  5.38607e-012 1.2921e-014 -6.02303e-014
Spine  -4.21349 -3.0099 -2.76591
Spine1  6.46628 -3.15277 0.540384
HEad  9.1967 10.6163 -1.7834
LeftShoulder1  0.727705 -0.534796 -12.0749
LeftArm  -35.4039 -14.7405 -21.3562
LeftForeArm  -30.7242 -2.37397 1.10794
LeftHand  0.00122114 5.98298 5.39248
RightShoulder  0.940283 -0.596419 28.6239
RightArm  -29.9362 -14.8384 36.2371
RightForeArm  61.0324 -5.22084 1.06059
RightHand  0.330375 -7.66071 -17.6914
LeftUpLeg  1.81224 0.209392 -7.03822
LeftLeg  13.6599 -10.7366 -1.36722
LeftFoot  -15.5558 0.294723 5.46336
LeftToes  -7.20997e-011 3.75522e-011 -2.80735e-011
1377
root  41.5272 39.0611 -55.1813 -3.30809 -57.6041 6.93616
RightUpLeg  -25.193 0.993382 -2.62486
RightLeg  9.12426 0.16778 -0.458073
RightFoot  -3.68792 -0.398884 5.58233
RightToes  5.38607e-012 1.2921e-014 -6.02303e-014
Spine  -4.93646 -3.12956 -2.22833
Spine1  6.85109 -3.23098 0.649101
HEad  8.30114 10.248 -2.35613
LeftShoulder1  0.671815 -0.172726 -12.4779
LeftArm  -32.3119 -11.6948 -21.575
LeftForeArm  -30.4777 -1.38315 0.302297
LeftHand  0.0064266 5.99832 5.66529
RightShoulder  0.882486 -0.746861 28.3802
RightArm  -30.4116 -16.2831 36.0549
RightForeArm  62.2511 -5.1273 0.758221
RightHand  0.314344 -7.67988 -16.8114
LeftUpLeg  3.71398 0.181556 -6.77453
LeftLeg  13.3345 -12.3573 -1.61624
LeftFoot  -16.3903 0.352415 5.75249
LeftToes  -7.20997e-011 3.75522e-011 -2.80735e-011
1378
root  40.2313 38.954 -54.3618 -2.51468 -55.72 6.44861
RightUpLeg  -24.3678 0.20356 -2.4063
RightLeg  1.79695 5.06193 -0.824354
RightFoot  -5.85591 -0.187816 3.0878
RightToes  5.38607e-012 1.2921e-014 -6.02303e-014
Spine  -5.60859 -3.16448 -1.14801
Spine1  7.7218 -3.32885 0.645344
HEad  7.65004 10.2517 -3.23927
LeftShoulder1  0.647886 0.00636422 -12.8342
LeftArm  -29.8046 -8.06817 -21.6833
LeftForeArm  -29.7912 -0.415909 -0.27353
LeftHand  -0.00396747 5.89399 5.12649
RightShoulder  0.816332 -0.912347 27.9635
RightArm  -30.6365 -17.713 35.9512
RightForeArm  62.2507 -5.10864 0.648597
RightHand  0.154858 -6.69566 -15.3501
LeftUpLeg  5.83225 -0.523766 -6.51715
LeftLeg  13.4256 -13.4847 -1.66867
LeftFoot  -16.946 0.370973 5.49268
LeftToes  -7.20997e-011 3.75522e-011 -2.80735e-011
1379
root  38.8978 38.7135 -53.4855 -2.38507 -54.22 6.19214
RightUpLeg  -24.5422 -0.427094 -2.57729
RightLeg  2.85409 4.76158 -0.125469
RightFoot  -8.67613 -0.203718 6.21399
RightToes  5.38607e-012 1.2921e-014 -6.02303e-014
Spine  -5.41614 -3.04026 -0.404826
Spine1  7.84416 -3.32517 0.871466
HEad  7.57638 10.8258 -4.53718
LeftShoulder1  0.566823 0.477617 -13.2804
LeftArm  -27.1127 -3.99018 -21.7955
LeftForeArm  -28.4223 0.686065 -0.950227
LeftHand  -0.00239754 5.93594 5.1114
RightShoulder  0.780473 -0.995201 27.6079
RightArm  -30.0273 -18.7232 35.1116
RightForeArm  60.3163 -5.23084 0.976107
RightHand  0.126286 -6.49333 -15.141
LeftUpLeg  7.46235 -2.52387 -6.62167
LeftLeg  15.7993 -13.0127 -2.23212
LeftFoot  -17.8671 0.377941 4.7428
LeftToes  -7.20997e-011 3.75522e-011 -2.80735e-011
1380
root  37.5846 38.6746 -52.5788 -1.12158 -53.852 4.0885
RightUpLeg  -25.3686 0.5582 -1.26357
RightLeg  8.85222 3.29442 0.133607
RightFoot  -2.58808 -0.190311 2.25522
RightToes  5.38607e-012 1.2921e-014 -6.02303e-014
Spine  -5.24377 -2.49896 2.23777
Spine1  8.69437 -3.01068 0.950186
HEad  7.7681 12.571 -5.87677
LeftShoulder1  0.475482 0.964557 -13.5739
LeftArm  -25.2198 0.952212 -21.5625
LeftForeArm  -26.0273 2.24534 -1.22394
LeftHand  0.0181111 6.28224 5.88134
RightShoulder  0.777984 -1.00777 27.6859
RightArm  -29.2757 -18.4717 33.6427
RightForeArm  58.9115 -5.32905 1.27802
RightHand  0.107611 -6.31324 -15.6193
LeftUpLeg  9.44485 -5.84499 -5.914
LeftLeg  17.8675 -10.4759 -2.92787
LeftFoot  -17.1971 0.263709 3.13579
LeftToes  -7.20997e-011 3.75522e-011 -2.80735e-011
1381
root  36.2577 38.6958 -51.6029 0.718048 -53.4941 1.35431
RightUpLeg  -25.4226 3.34669 -0.139874
RightLeg  13.4378 1.84698 -0.408215
RightFoot  2.29338 -0.316297 2.77553
RightToes  5.38607e-012 1.2921e-014 -6.02303e-014
Spine  -5.49094 -2.17529 5.05485
Spine1  9.74231 -2.9804 1.46764
HEad  8.70843 15.3832 -6.801
LeftShoulder1  0.343617 1.6621 -14.232
LeftArm  -22.9466 7.25095 -20.2837
LeftForeArm  -23.8782 2.03776 -1.74839
LeftHand  -0.0186728 5.5398 4.82834
RightShoulder  0.801472 -0.955745 27.9549
RightArm  -28.0686 -16.692 31.7353
RightForeArm  58.5019 -5.42836 1.78478
RightHand  0.130765 -6.44334 -16.1907
LeftUpLeg  9.86008 -7.24439 -4.56043
LeftLeg  22.5977 -9.77822 -4.11554
LeftFoot  -14.6621 0.098867 0.375643
LeftToes  -7.20997e-011 3.75522e-011 -2.80735e-011
1382
root  34.9783 38.5979 -50.6292 2.87067 -53.5226 -1.70654
RightUpLeg  -25.4306 5.06515 1.23535
RightLeg  18.6893 0.289328 -0.190101
RightFoot  1.68556 -0.370923 3.34783
RightToes  5.38607e-012 1.2921e-014 -6.02303e-014
Spine  -5.38202 -1.78928 7.76431
Spine1  9.99121 -2.61682 1.77858
HEad  10.3121 18.8313 -7.0735
LeftShoulder1  0.19516 2.39013 -14.6974
LeftArm  -20.7913 13.5027 -18.6524
LeftForeArm  -21.7383 1.37678 -2.2087
LeftHand  -0.0413867 4.85438 4.12506
RightShoulder  0.897989 -0.650827 27.7
RightArm  -27.4142 -14.3792 30.4136
RightForeArm  58.4438 -5.47719 2.06261
RightHand  0.181399 -6.74994 -16.8344
LeftUpLeg  7.09883 -5.2663 -1.65452
LeftLeg  32.5538 -11.4984 -7.47277
LeftFoot  -9.57262 0.125133 -4.38833
LeftToes  -7.20997e-011 3.75522e-011 -2.80735e-011
1383
root  33.7988 38.5458 -49.7084 4.45885 -53.1449 -4.39551
RightUpLeg  -24.2407 4.63449 3.30945
RightLeg  22.3737 0.345562 -0.0662821
RightFoot  -0.558941 -0.120446 1.23534
RightToes  5.38607e-012 1.2921e-014 -6.02303e-014
Spine  -4.8746 -1.27941 10.1228
Spine1  10.1848 -2.04521 1.95887
HEad  12.0132 21.8864 -6.30489
LeftShoulder1  0.0892961 2.87147 -13.9243
LeftArm  -19.6601 18.6567 -17.4652
LeftForeArm  -19.3963 -0.016079 -2.42537
LeftHand  -0.0514543 4.37646 3.5381
RightShoulder  1.02783 -0.229622 27.3141
RightArm  -27.4847 -12.3103 29.8796
RightForeArm  58.6965 -5.4582 1.9992
RightHand  0.18591 -6.80254 -16.6119
LeftUpLeg  2.37828 -3.63046 1.15805
LeftLeg  44.2678 -10.837 -10.7324
LeftFoot  -0.948012 0.995304 -10.8578
LeftToes  -7.20997e-011 3.75522e-011 -2.80735e-011
1384
root  32.8094 38.5644 -48.8416 5.55142 -51.7969 -6.52618
RightUpLeg  -22.1118 4.45534 4.71192
RightLeg  24.0229 -0.738382 -0.591404
RightFoot  -3.28419 -0.0980304 1.07425
RightToes  5.38607e-012 1.2921e-014 -6.02303e-014
Spine  -4.16206 -0.883142 12.2964
Spine1  10.5804 -1.5286 2.40013
HEad  13.1449 23.9054 -5.3914
LeftShoulder1  0.0230853 3.1881 -13.1765
LeftArm  -18.1015 20.9166 -15.9876
LeftForeArm  -17.1084 -1.49829 -3.02863
LeftHand  -0.0526758 4.00357 2.78956
RightShoulder  1.14756 0.144469 27.1852
RightArm  -26.8906 -9.92455 29.1996
RightForeArm  58.032 -5.53948 2.35239
RightHand  0.167488 -6.66935 -16.6446
LeftUpLeg  -3.74823 -3.75027 3.01273
LeftLeg  54.6404 -7.87176 -11.2819
LeftFoot  11.251 3.36299 -17.0759
LeftToes  -7.20997e-011 3.75522e-011 -2.80735e-011
1385
root  31.854 38.6586 -47.9587 5.12253 -50.1747 -6.97174
RightUpLeg  -19.407 1.58243 5.2074
RightLeg  25.0093 0.337058 -0.0663337
RightFoot  -6.23309 -0.0781574 0.803185
RightToes  5.38607e-012 1.2921e-014 -6.02303e-014
Spine  -3.48705 -0.355687 13.5998
Spine1  10.911 -0.782307 2.40207
HEad  13.7743 25.0182 -4.88058
LeftShoulder1  0.030847 3.14347 -12.3807
LeftArm  -16.8908 20.286 -15.3144
LeftForeArm  -15.2956 -2.17417 -3.68279
LeftHand  -0.051837 3.78925 2.41122
RightShoulder  1.27409 0.507379 27.369
RightArm  -26.0413 -7.31801 28.311
RightForeArm  57.1665 -5.65527 2.87523
RightHand  0.165901 -6.58826 -17.4904
LeftUpLeg  -9.40308 -4.23175 3.22758
LeftLeg  61.9538 -4.34983 -8.23063
LeftFoot  18.5227 4.74508 -18.1012
LeftToes  -7.20997e-011 3.75522e-011 -2.80735e-011
1386
root  30.9315 38.8637 -47.0617 3.76357 -48.2928 -5.92108
RightUpLeg  -16.3648 -0.648537 4.39882
RightLeg  24.8013 0.593383 0.056484
RightFoot  -8.47572 -0.0800621 0.902542
RightToes  5.38607e-012 1.2921e-014 -6.02303e-014
Spine  -3.20858 0.140159 13.9256
Spine1  11.0282 -0.0810346 2.1242
HEad  14.6053 25.7254 -4.45897
LeftShoulder1  0.0939753 2.79311 -11.4399
LeftArm  -16.3825 18.1508 -15.8487
LeftForeArm  -14.4796 -2.25359 -4.18128
LeftHand  -0.0458028 3.74763 1.90894
RightShoulder  1.45616 1.0968 27.0491
RightArm  -25.88 -4.81324 28.1235
RightForeArm  57.1101 -5.6826 3.02744
RightHand  0.183051 -6.63674 -18.3054
LeftUpLeg  -14.5947 -4.0685 2.49484
LeftLeg  66.8315 -2.73462 -6.30525
LeftFoot  11.5657 2.98283 -15.0027
LeftToes  -7.20997e-011 3.75522e-011 -2.80735e-011
